<svg width="51" height="57" viewBox="0 0 51 57" fill="none" xmlns="http://www.w3.org/2000/svg">
<path d="M25.3211 0C18.6186 0 13.4225 9.9183 12.4916 23.6956C13.6933 24.9735 15.1066 26.2429 16.6722 27.4784C16.6891 26.0398 16.7737 24.6688 16.8922 23.3232C18.1531 22.4516 19.7357 21.3853 20.9881 20.6575C26.7513 17.3316 32.6836 15.1398 37.6851 14.4882C38.6668 14.3612 39.5892 14.302 40.427 14.302C43.2366 14.302 45.2254 14.979 45.9616 16.2484C46.6217 17.3993 46.3255 19.2273 45.2169 21.3684C46.3509 22.4177 47.4257 23.484 48.3819 24.5588C50.8192 20.5221 51.3185 16.8577 49.7106 14.082C47.798 10.773 43.3382 9.38515 37.135 10.1891C31.575 10.9084 25.0756 13.2949 18.8217 16.9085C18.4239 17.137 18.0516 17.3909 17.6623 17.6363C19.2194 9.6221 22.3845 4.33291 25.3211 4.33291C26.692 4.33291 28.1138 5.50076 29.4001 7.53182C30.8726 7.07483 32.3282 6.67708 33.7415 6.38089C31.4988 2.3611 28.5877 0 25.3211 0ZM10.6298 9.99446C5.93298 9.90984 2.53097 11.3146 0.931521 14.082C-0.811799 17.0947 -0.0840045 21.1399 2.91179 25.5828C3.1826 25.9975 3.4788 26.4375 3.85116 26.9199C7.25317 31.3713 12.5677 35.8057 18.8217 39.4193C19.2194 39.6478 19.6341 39.8509 20.0403 40.0794C17.5608 40.9341 15.1573 41.5519 12.9486 41.8397C8.72568 42.3897 5.63679 41.7296 4.68897 40.0794C4.02041 38.9285 4.31661 37.1005 5.42522 34.9595C4.29122 33.9101 3.21645 32.8438 2.2517 31.7775C-0.177095 35.8057 -0.676395 39.4701 0.931521 42.2459C2.48866 44.9455 5.73834 46.3672 10.2405 46.3672C11.2645 46.3672 12.3646 46.291 13.5071 46.1387C14.1672 46.0541 14.8273 45.9441 15.5043 45.8087L15.9782 45.7071C16.0121 45.7071 16.0375 45.6987 16.0713 45.6902C17.2222 45.4448 18.4916 45.1063 19.9472 44.6493L21.3774 44.2092C23.5016 43.4814 25.6765 42.5759 27.8514 41.5181C28.3253 39.944 28.7485 38.1076 29.07 35.9919C27.8176 36.6943 26.5566 37.329 25.3041 37.9214C23.857 37.2444 22.4014 36.4912 20.9881 35.6703C15.2166 32.336 10.3505 28.2993 7.29548 24.2964C4.70589 20.9029 3.73268 17.8986 4.68897 16.2484C5.34059 15.1144 7.06699 14.4712 9.44501 14.3528C9.78352 12.821 10.1728 11.3654 10.6298 9.99446ZM35.5948 19.2781C33.8853 19.6758 32.0743 20.2597 30.221 20.996C31.4481 21.7238 32.6159 22.5024 33.7499 23.2809C33.8853 24.855 33.9869 26.4629 33.9869 28.1639C33.9869 40.9426 29.9671 50.6917 26.0996 51.868C25.8373 51.9526 25.5665 51.9949 25.3211 51.9949C23.9501 51.9949 22.5284 50.8355 21.242 48.7875C19.7695 49.253 18.3139 49.6507 16.9007 49.9469C19.1433 53.9667 22.0545 56.3278 25.3211 56.3278C25.7527 56.3278 26.1673 56.2855 26.5735 56.2009C33.3522 54.9145 38.3198 43.3037 38.3198 28.1639C38.3198 27.6985 38.2859 27.2499 38.2775 26.7845C40.2577 28.5024 42.0011 30.2711 43.3551 32.0314C45.9362 35.4249 46.9094 38.4292 45.9616 40.0794C45.2931 41.2219 43.5921 41.882 41.1971 42.0004C40.8586 43.5153 40.4778 44.9793 40.0208 46.3418C40.1393 46.3418 40.2831 46.3672 40.4016 46.3672C44.9038 46.3672 48.1535 44.9455 49.7106 42.2459C51.6232 38.9369 50.5907 34.3755 46.791 29.4079C44.0998 25.8874 40.1985 22.3839 35.5948 19.2781ZM25.3211 23.831C22.9261 23.831 20.9881 25.769 20.9881 28.1639C20.9881 30.5589 22.9261 32.4968 25.3211 32.4968C27.716 32.4968 29.654 30.5589 29.654 28.1639C29.654 25.769 27.716 23.831 25.3211 23.831Z" fill="url(#paint0_linear_17_551)"/>
<defs>
<linearGradient id="paint0_linear_17_551" x1="81.0146" y1="-21.9415" x2="5.48536" y2="60.761" gradientUnits="userSpaceOnUse">
<stop stop-color="#66B3FF"/>
<stop offset="1" stop-color="#2383E2"/>
</linearGradient>
</defs>
</svg>
