<svg width="27" height="27" viewBox="0 0 27 27" fill="none" xmlns="http://www.w3.org/2000/svg">
<path fill-rule="evenodd" clip-rule="evenodd" d="M0 13.5C0 7.13603 -1.60933e-07 3.95406 1.97703 1.97703C3.95406 -1.60933e-07 7.13603 0 13.5 0C19.8639 0 23.046 -1.60933e-07 25.0229 1.97703C27 3.95406 27 7.13603 27 13.5C27 19.8639 27 23.046 25.0229 25.0229C23.046 27 19.8639 27 13.5 27C7.13603 27 3.95406 27 1.97703 25.0229C-1.60933e-07 23.046 0 19.8639 0 13.5ZM18.8117 4.84863C19.1929 5.00394 19.4423 5.37463 19.4423 5.78632V9.4509C19.4423 10.0101 18.989 10.4634 18.4298 10.4634H14.85C14.4427 10.4634 14.075 10.2193 13.9169 9.84385C13.7588 9.46841 13.8411 9.03481 14.1257 8.7434L15.1538 7.69102C13.2023 7.08943 10.998 7.57759 9.45131 9.16105C7.19956 11.4662 7.19956 15.2132 9.45131 17.5183C11.6901 19.8102 15.3099 19.8102 17.5486 17.5183C18.4638 16.5815 19.0087 15.4051 19.1793 14.1811C19.2579 13.6168 19.7062 13.1421 20.2759 13.1421C20.8232 13.1421 21.2772 13.5803 21.2243 14.1251C21.0542 15.8768 20.3136 17.5858 18.9972 18.9333C15.964 22.0385 11.036 22.0385 8.00275 18.9333C4.98242 15.8414 4.98242 10.8379 8.00275 7.74603C10.3484 5.34472 13.8294 4.79878 16.6923 6.116L17.7055 5.07881C17.9932 4.78431 18.4305 4.69332 18.8117 4.84863Z" fill="white"/>
</svg>
