<svg width="27" height="27" viewBox="0 0 27 27" fill="none" xmlns="http://www.w3.org/2000/svg">
<path fill-rule="evenodd" clip-rule="evenodd" d="M13.5 27C7.13603 27 3.95406 27 1.97703 25.0229C-1.60933e-07 23.046 0 19.8639 0 13.5C0 7.13603 -1.60933e-07 3.95406 1.97703 1.97703C3.95406 -1.60933e-07 7.13603 0 13.5 0C19.8639 0 23.046 -1.60933e-07 25.0229 1.97703C27 3.95406 27 7.13603 27 13.5C27 19.8639 27 23.046 25.0229 25.0229C23.046 27 19.8639 27 13.5 27ZM18.9409 9.40905C19.3363 9.80446 19.3363 10.4455 18.9409 10.8409L12.1909 17.5909C11.7955 17.9863 11.1545 17.9863 10.7591 17.5909L8.05905 14.8909C7.66365 14.4955 7.66365 13.8545 8.05905 13.4591C8.45446 13.0637 9.09554 13.0637 9.49094 13.4591L11.475 15.4431L17.5091 9.40905C17.9045 9.01365 18.5455 9.01365 18.9409 9.40905Z" fill="white"/>
</svg>
