<svg width="27" height="29" viewBox="0 0 27 29" fill="none" xmlns="http://www.w3.org/2000/svg">
<path fill-rule="evenodd" clip-rule="evenodd" d="M16.0278 0.216341C15.5015 6.35259e-08 14.8344 0 13.5 0C12.1656 0 11.4984 6.35259e-08 10.9722 0.216341C10.2705 0.5048 9.71301 1.05809 9.42236 1.75447C9.28968 2.07238 9.23775 2.44208 9.21743 2.98135C9.18758 3.77386 8.77806 4.50742 8.08602 4.90395C7.39398 5.30046 6.54911 5.28566 5.84263 4.91507C5.36188 4.6629 5.01331 4.52267 4.66956 4.47776C3.91654 4.37937 3.15499 4.58188 2.55243 5.04075C2.10051 5.3849 1.76692 5.95833 1.09975 7.10516C0.432579 8.252 0.0990014 8.82541 0.024652 9.38592C-0.0744947 10.1332 0.129568 10.889 0.591936 11.4871C0.802976 11.7601 1.09956 11.9894 1.55988 12.2765C2.2366 12.6985 2.67203 13.4174 2.67199 14.2105C2.67194 15.0036 2.23653 15.7224 1.55988 16.1443C1.09949 16.4315 0.802848 16.661 0.591794 16.934C0.129426 17.5319 -0.0746225 18.2877 0.02451 19.035C0.0988594 19.5954 0.432451 20.169 1.09961 21.3158C1.76678 22.4626 2.10037 23.0361 2.55229 23.3801C3.15484 23.839 3.9164 24.0415 4.66941 23.9431C5.01315 23.8982 5.36169 23.758 5.84241 23.5059C6.54894 23.1353 7.39387 23.1205 8.08595 23.517C8.77803 23.9136 9.18756 24.6471 9.21743 25.4398C9.23775 25.9789 9.28968 26.3487 9.42236 26.6666C9.71301 27.3629 10.2705 27.9163 10.9722 28.2047C11.4984 28.421 12.1656 28.421 13.5 28.421C14.8344 28.421 15.5015 28.421 16.0278 28.2047C16.7295 27.9163 17.2869 27.3629 17.5775 26.6666C17.7103 26.3487 17.7623 25.9789 17.7826 25.4397C17.8124 24.6471 18.2219 23.9136 18.9139 23.517C19.606 23.1204 20.4509 23.1353 21.1575 23.5059C21.6382 23.758 21.9866 23.8981 22.3304 23.943C23.0834 24.0415 23.845 23.839 24.4475 23.3801C24.8995 23.036 25.233 22.4626 25.9002 21.3156C26.5674 20.1688 26.9009 19.5954 26.9754 19.035C27.0744 18.2877 26.8704 17.5318 26.4081 16.9338C26.1969 16.6608 25.9004 16.4313 25.4399 16.1443C24.7634 15.7224 24.328 15.0035 24.328 14.2104C24.328 13.4173 24.7634 12.6987 25.4399 12.2767C25.9005 11.9896 26.1971 11.7602 26.4082 11.4871C26.8705 10.8891 27.0746 10.1333 26.9755 9.386C26.9011 8.82551 26.5675 8.25209 25.9004 7.10526C25.2332 5.95843 24.8997 5.385 24.4476 5.04085C23.8451 4.58198 23.0836 4.37947 22.3305 4.47786C21.9868 4.52277 21.6382 4.66298 21.1576 4.91513C20.4511 5.28573 19.6061 5.30055 18.914 4.90399C18.222 4.50745 17.8124 3.77383 17.7825 2.98128C17.7621 2.44205 17.7103 2.07236 17.5775 1.75447C17.2869 1.05809 16.7295 0.5048 16.0278 0.216341ZM13.5 18.4737C15.8724 18.4737 17.7955 16.5651 17.7955 14.2105C17.7955 11.856 15.8724 9.94736 13.5 9.94736C11.1275 9.94736 9.20437 11.856 9.20437 14.2105C9.20437 16.5651 11.1275 18.4737 13.5 18.4737Z" fill="white"/>
</svg>
