<svg width="190" height="190" viewBox="0 0 190 190" fill="none" xmlns="http://www.w3.org/2000/svg">
<path fill-rule="evenodd" clip-rule="evenodd" d="M87.7194 138.806C90.821 145.994 93.3192 153.427 95.1882 161.029C100.638 183.252 80.2506 188 80.2506 188L57.5211 150.241L17.6133 138.988C17.6133 138.988 21.166 117.492 39.0105 118.259C46.2977 118.562 54.3519 119.33 61.3363 120.138C66.5443 112.279 73.3268 101.956 80.6139 91.2278L14 68.3586C14 68.3586 18.0372 35.5086 52.5553 42.9635C67.0691 46.095 89.3747 50.5194 106.27 53.8125C112.023 45.7313 117.171 38.6805 121.107 33.7712C137.417 13.548 163.114 -2.45274 172.117 4.75972C181.12 11.9722 173.752 41.5695 157.381 62.0351C145.492 77.0661 107.401 117.876 87.7194 138.806ZM165.274 131.108C177.79 157.15 147.51 174.343 147.51 174.343L117.978 127.876L146.804 93.2683C153.021 105.875 159.804 119.855 165.274 131.189V131.108Z" fill="#DADADA"/>
</svg>
