<svg width="700" height="700" viewBox="0 0 700 700" fill="none" xmlns="http://www.w3.org/2000/svg">
<path d="M666.354 49.879L662.288 41.7329L654.156 37.6599C650.09 37.6599 552.51 5.07551 483.391 74.3173L210.979 343.138C174.387 318.7 141.86 294.262 137.794 302.408L121.531 314.627C113.399 322.773 158.123 383.869 194.716 424.599L93.0699 563.083C80.8724 550.863 60.5432 550.863 48.3457 563.083L36.1481 575.302C23.9506 587.521 23.9506 607.886 36.1481 620.105L76.8066 660.836C89.0041 673.055 109.333 673.055 121.531 660.836L133.728 648.617C145.926 636.397 145.926 616.032 133.728 603.813L276.033 501.987C316.691 538.644 377.679 583.448 385.811 575.302L402.074 559.01C406.14 554.936 385.811 518.279 357.35 485.695L629.761 212.801C698.88 151.705 666.354 53.952 666.354 49.879ZM337.02 457.183L304.494 424.599L556.576 143.559L276.033 396.088L247.572 367.576L511.852 102.829C552.51 62.0981 605.366 70.2442 629.761 74.3173C633.827 98.7555 641.959 151.705 601.3 188.363L337.02 457.183Z" fill="#FF2B77"/>
</svg>
