<svg width="914" height="914" viewBox="0 0 914 914" fill="none" xmlns="http://www.w3.org/2000/svg">
<path d="M900.225 567.56C839.187 812.383 591.222 961.379 346.37 900.327C101.618 839.289 -47.3786 591.309 13.688 346.5C74.6975 101.648 322.663 -47.3624 567.443 13.6757C812.281 74.7137 961.263 322.722 900.225 567.56Z" fill="url(#paint0_linear_34_11)"/>
<path d="M658.444 391.9C667.541 331.091 621.241 298.401 557.932 276.594L578.469 194.219L528.327 181.723L508.333 261.927C495.152 258.642 481.613 255.543 468.16 252.472L488.297 171.741L438.184 159.244L417.633 241.59C406.722 239.105 396.011 236.649 385.615 234.064L385.672 233.807L316.522 216.541L303.183 270.096C303.183 270.096 340.386 278.621 339.6 279.15C359.908 284.22 363.579 297.658 362.965 308.312L339.572 402.154C340.971 402.511 342.785 403.025 344.784 403.825C343.114 403.411 341.328 402.954 339.486 402.511L306.696 533.97C304.211 540.14 297.913 549.394 283.718 545.881C284.218 546.609 247.272 536.784 247.272 536.784L222.38 594.18L287.631 610.446C299.77 613.488 311.666 616.673 323.377 619.672L302.626 702.989L352.711 715.485L373.261 633.054C386.943 636.767 400.224 640.194 413.22 643.422L392.741 725.467L442.882 737.964L463.633 654.804C549.135 670.985 613.429 664.458 640.492 587.125C662.3 524.859 639.407 488.941 594.421 465.52C627.182 457.965 651.86 436.415 658.444 391.9ZM543.879 552.55C528.384 614.816 423.546 581.155 389.556 572.715L417.09 462.335C451.08 470.818 560.074 487.613 543.879 552.55ZM559.389 391.001C545.25 447.64 457.992 418.863 429.686 411.808L454.65 311.697C482.956 318.752 574.113 331.919 559.389 391.001Z" fill="white"/>
<defs>
<linearGradient id="paint0_linear_34_11" x1="456.951" y1="0" x2="456.951" y2="914.009" gradientUnits="userSpaceOnUse">
<stop stop-color="#F7931A"/>
<stop offset="1" stop-color="#FAD554"/>
</linearGradient>
</defs>
</svg>
