<?xml version="1.0" encoding="UTF-8"?><svg id="Layer_1" xmlns="http://www.w3.org/2000/svg" viewBox="0 0 200 200"><defs><style>.cls-1{fill:#fff;stroke-width:0px;}</style></defs><path class="cls-1" d="m86.73,162.55c0,10.31,0,20.61,0,30.92h26.43v-30.99c-3.9-.46-8.31-.77-13.14-.76-4.89.01-9.35.35-13.29.83Z"/><path class="cls-1" d="m99.92,6.11C70.25,57.63,40.59,109.15,10.93,160.68c-3.26,5.54-6.53,11.08-9.79,16.62,7.12,5.53,14.24,11.06,21.37,16.59,9.65-9.41,25.87-22.24,48.85-28.42,5.41-1.46,10.57-2.37,15.37-2.92,0-9.03,0-18.06-.01-27.08-2.8.27-5.71.65-8.71,1.15-10.08,1.69-18.9,4.43-26.34,7.4,16.09-27.95,32.17-55.9,48.26-83.85,16.42,28.15,32.84,56.3,49.26,84.45-3.59-1.38-7.44-2.71-11.54-3.94-8.84-2.65-17.1-4.29-24.48-5.29v27.09c6.02.76,12.79,2.12,20.03,4.46,20.92,6.77,35.54,18.49,44.2,26.9,7.15-5.45,14.31-10.91,21.46-16.36C165.87,120.36,132.9,63.23,99.92,6.11Z"/></svg>