<svg width="236" height="221" fill="none" xmlns="http://www.w3.org/2000/svg"><path d="M111.832.279c-30.4 2.4-57.2 23-67.2 51.9-2.1 5.9-3.6 12.6-4 17.9l-.3 4-2.2 1.3c-4.3 2.5-11.5 8.2-15.5 12.2-11.9 11.9-18.9 25.7-21.8 42.6-.8 4.9-.9 7.2-.8 14.5.3 12.4 2.4 20.8 7.6 31.8 10.7 22.3 32.2 38.5 56.7 42.7 6.5 1.2 17.8 1.4 23.8.5 8.8-1.3 17.7-4.1 25.7-8.3l4.2-2.2 4.9 2.6c42.4 21.7 94.2.5 109.4-44.8 3-8.9 3.6-13.1 3.6-24.5 0-8.9-.1-11.1-1.1-15.3-4.7-21.8-17.5-39.9-36.2-51.4-2.8-1.7-2.9-1.9-2.9-3.7 0-3.5-1.9-13.2-3.6-18.3-2.3-6.8-6.7-15.6-10.7-21.3-4.2-5.9-12.2-13.8-18-17.9-11.2-7.9-25.3-13.2-37.4-14.1-7.9-.6-9.3-.6-14.2-.2zm19.7 11.3c24 5.3 43.2 22.4 50.6 45.1 1.3 4 3.1 12 2.8 12.3 0 .1-1.5-.3-3.2-.8-7.1-2.3-11.6-2.9-21-3.2-7.9-.2-10-.1-15.1.8-7.5 1.3-16.2 4.1-22.6 7.5l-5 2.6-5-2.6c-6.4-3.3-15-6.2-22.6-7.5-5.2-.9-7.2-1-15.1-.8-9.4.3-13.8.9-21 3.2-1.7.5-3.2.9-3.3.8-.1-.1.3-2.4.9-5.1 5.8-27.3 27.4-47.8 55.5-52.8 4.9-.9 19.3-.6 24.1.5zm-38.9 65.1c4.7 1.1 14.5 4.6 15.4 5.5.2.2-1.7 2.6-4.3 5.2-6.6 6.6-10.6 12.2-14.8 20.5-3.7 7.4-6 14.2-7.3 21.9-.4 2.4-.8 4.4-.9 4.4-.3.3-6.4-4.7-10.3-8.5-11.2-11.1-18.4-26.1-19.8-41.4l-.3-3.6 3.6-1.5c8.7-3.2 14.8-4.2 25.3-4 6.6.2 9.2.4 13.4 1.5zm74.9-1.2c4.8.6 10.2 2 14.6 3.7 4.1 1.5 3.9 1 2.7 8.8-.8 5.8-3.6 14.6-6.2 19.9-4.7 9.4-12.8 18.9-21.3 25l-2.1 1.5-.2-1.1c-.1-.6-.6-3.2-1.1-5.7-2.7-15.1-11.7-31.4-23.2-42-2-1.8-3-3.1-2.8-3.4.2-.2 2.6-1.3 5.3-2.4 4.9-2 10.9-3.6 16-4.3 4.1-.5 14-.6 18.3 0zm-126.6 12.6c0 .8.4 3.5 1 6.1 4.5 20.6 17.7 39.3 35.4 50.1l3.4 2 .3 4c1.5 17.7 10.4 36 23.8 48.7 2 1.9 3.6 3.6 3.5 3.7-.6.5-5.5 2.8-8.4 3.8-7.3 2.6-12.7 3.5-22.1 3.5-9.8 0-14-.7-22.2-3.5-10.3-3.6-18.9-9.1-26.8-17.4-9.1-9.5-14.5-19.7-17.5-33-1.6-7.2-1.6-19.7 0-26.9 2.9-13.1 8.3-23.4 17-32.6 4.4-4.6 11.5-10.5 12.2-10.1.2 0 .4.8.4 1.6zm165.1 6.9c10.1 10 15.7 20.3 18.7 34.1 1.5 7 1.5 19.7 0 26.7-2.8 13.1-8.4 23.6-17.5 33.1-7.8 8.2-16.5 13.8-26.8 17.4-8.2 2.8-12.4 3.5-22.2 3.5-9.5 0-13.1-.6-21.1-3.2-3.3-1.1-8.6-3.4-9.5-4 0 0 2.2-2.5 5.1-5.4 6.2-6.4 10.2-11.8 14.1-19.4 4.5-8.9 7.3-18.3 8.2-27.8l.3-3.8 3.1-1.9c14.3-8.7 25.8-22.4 31.9-37.9 1.9-5 4-12.6 4.5-16.7.2-1.4.4-2.7.5-3 .5-1.1 4.4 2 10.7 8.3zm-83.5-2.9c12.5 10.9 21 27.6 22.4 44l.3 3.9-5.3 1.7c-8.8 2.9-12.4 3.5-21.9 3.5-9.5 0-13.1-.6-21.8-3.5l-5.2-1.7v-2c0-3.4 1.4-10.9 3.2-16.3 3.7-11.5 10.9-22.5 19.9-30.1 2-1.7 3.8-3.1 4-3.1.1 0 2.1 1.6 4.4 3.6zm-26.4 60.5c8 2.3 11 2.7 22.1 2.7 11.1 0 14.7-.5 22.9-3.1 1.7-.5 3.2-.9 3.3-.8.3.3-.9 6.6-2.2 10.6-3.7 12-10.8 23-19.8 30.9-2.2 2-4.2 3.6-4.4 3.6-.2 0-2.2-1.6-4.4-3.6-10.7-9.3-18.4-22.7-21.4-36.8-.9-4.4-.9-5.1 0-4.8.3.2 2.1.7 3.9 1.3z" fill="#fff"/></svg>