<svg width="667" height="667" viewBox="0 0 667 667" fill="none" xmlns="http://www.w3.org/2000/svg">
<path d="M91.2646 538.163L173.362 12.8287C174.366 6.38589 179.377 1.30701 185.805 0.214893C192.234 -0.877221 198.64 2.26477 201.714 8.01491L286.617 166.373L320.459 101.938C323.08 96.9555 328.247 93.8359 333.877 93.8359C339.507 93.8359 344.674 96.9555 347.295 101.938L576.419 538.162L91.2646 538.163Z" fill="#FFA000"/>
<path d="M374.893 333.526L286.579 166.298L91.2659 538.164L374.893 333.526Z" fill="#F57C00"/>
<path d="M576.423 538.164L513.542 149.052C512.592 143.464 508.604 138.874 503.204 137.144C497.803 135.413 491.893 136.854 487.882 140.86L91.2659 538.158L310.724 661.229C324.505 668.924 341.289 668.924 355.07 661.229L576.423 538.158V538.164Z" fill="#FFCA28"/>
<path d="M513.541 149.052C512.591 143.464 508.603 138.874 503.203 137.143C497.802 135.413 491.892 136.853 487.881 140.859L409.162 219.779L347.261 101.935C344.64 96.953 339.473 93.8334 333.843 93.8334C328.213 93.8334 323.047 96.953 320.425 101.935L286.583 166.37L201.675 8.01497C198.597 2.2633 192.183 -0.8736 185.747 0.226657C179.311 1.32691 174.317 6.41853 173.324 12.8664L91.2646 538.163L91 538.163L91.2646 538.467L93.4249 539.528L487.766 144.731C491.775 140.703 497.7 139.255 503.115 140.98C508.53 142.705 512.525 147.313 513.465 152.917L575.816 538.542L576.422 538.162L513.541 149.052ZM91.9847 537.443L173.362 16.5814C174.354 10.1335 179.359 5.04193 185.79 3.94168C192.221 2.84142 198.635 5.9773 201.719 11.73L286.617 170.088L320.459 105.653C323.08 100.671 328.247 97.551 333.877 97.551C339.507 97.551 344.674 100.671 347.295 105.653L407.94 220.991L91.9847 537.443Z" fill="white" fill-opacity="0.2"/>
<path d="M355.069 657.52C341.288 665.215 324.504 665.215 310.723 657.52L91.7954 534.791L91.2646 538.165L310.723 661.198C324.504 668.893 341.287 668.893 355.069 661.198L576.422 538.165L575.853 534.678L355.069 657.52Z" fill="#A52714"/>
<path d="M512.913 149.132C511.966 143.546 507.992 138.954 502.611 137.234C497.229 135.514 491.339 136.944 487.342 140.949L408.894 219.829L347.214 102.04C344.602 97.0595 339.454 93.9409 333.844 93.9409C328.234 93.9409 323.086 97.0595 320.473 102.04L286.745 166.447L202.139 8.15701C199.07 2.40789 192.679 -0.728502 186.271 0.372263C179.863 1.47303 174.875 6.56057 173.887 13.0069L92.1132 538.073L310.804 661.053C324.537 668.744 341.262 668.744 354.996 661.053L575.575 538.073L512.913 149.132Z" fill="url(#paint0_linear_16_29)"/>
<defs>
<linearGradient id="paint0_linear_16_29" x1="-1595.17" y1="11346.8" x2="58736.5" y2="43171.1" gradientUnits="userSpaceOnUse">
<stop stop-color="white" stop-opacity="0.1"/>
<stop offset="0.14" stop-color="white" stop-opacity="0.08"/>
<stop offset="0.61" stop-color="white" stop-opacity="0.02"/>
<stop offset="1" stop-color="white" stop-opacity="0"/>
</linearGradient>
</defs>
</svg>
