<?xml version="1.0" encoding="iso-8859-1"?>
<!-- Uploaded to: SVG Repo, www.svgrepo.com, Generator: SVG Repo Mixer Tools -->
<svg height="800px" width="800px" version="1.1" id="Layer_1" xmlns="http://www.w3.org/2000/svg" xmlns:xlink="http://www.w3.org/1999/xlink" 
	 viewBox="0 0 512 512" xml:space="preserve">
<path style="fill:#B1EAE5;" d="M505.185,197.121C478.585,84.119,377.121,0,256,0C114.615,0,0,114.615,0,256
	c0,121.244,84.29,222.795,197.465,249.268L505.185,197.121z"/>
<path style="fill:#7DDCD4;" d="M512,256c0-20.264-2.365-39.973-6.815-58.879L388.708,80.644l20.803,197.027L201.606,69.766
	l-72.214,32.278L64.989,372.793l132.476,132.476C216.265,509.666,235.859,512,256,512C397.384,512,512,397.384,512,256z"/>
<path style="fill:#4C6460;" d="M147.534,69.766c-12.243,0-26.168,9.227-30.931,20.502l-26.434,62.575l8.347,74.997l53.137-125.796
	h49.953V69.766L147.534,69.766L147.534,69.766z"/>
<path style="fill:#394B48;" d="M96.919,267.487l31.104-73.631c9.529-22.557-2.709-41.012-27.196-41.012h-10.66l-48.43,114.643
	H96.919z"/>
<path style="fill:#4C6460;" d="M395.398,90.268c-4.764-11.275-18.688-20.502-30.931-20.502h-54.072v32.278h49.953l53.137,125.796
	l8.347-74.997L395.398,90.268z"/>
<path style="fill:#394B48;" d="M415.079,267.487l-31.104-73.631c-9.529-22.557,2.709-41.012,27.196-41.012h10.66l48.43,114.643
	H415.079z"/>
<path style="fill:#263230;" d="M256,276.191l-11.13,18.922l11.13,14.47c12.271,0,24.093,2.61,35.137,7.759l14.109-30.264
	C289.751,279.854,273.182,276.191,256,276.191z"/>
<path style="fill:#394B48;" d="M206.751,287.078l14.111,30.264c11.044-5.149,22.865-7.76,35.138-7.76v-33.391
	C238.816,276.191,222.247,279.854,206.751,287.078z"/>
<circle style="fill:#FFFFFF;" cx="135.791" cy="301.991" r="89.043"/>
<path style="fill:#D8F4F2;" d="M191.443,301.991c0-30.687-24.966-55.652-55.652-55.652v111.304
	c-30.687,0-55.652-24.966-55.652-55.652H46.748c0,49.178,39.866,89.043,89.043,89.043s89.043-39.866,89.043-89.043H191.443z"/>
<path style="fill:#394B48;" d="M135.791,201.817c55.24,0,100.174,44.934,100.174,100.174s-44.934,100.174-100.174,100.174
	l-11.13-11.13l11.13-11.13c42.963,0,77.913-34.95,77.913-77.913s-34.95-77.913-77.913-77.913l-11.13-11.13L135.791,201.817z"/>
<path style="fill:#4C6460;" d="M135.791,379.904v22.261c-55.24,0-100.174-44.934-100.174-100.174s44.934-100.174,100.174-100.174
	v22.261c-42.963,0-77.913,34.95-77.913,77.913S92.828,379.904,135.791,379.904z"/>
<circle style="fill:#FFFFFF;" cx="376.209" cy="301.991" r="89.043"/>
<path style="fill:#D8F4F2;" d="M431.861,301.991c0-30.687-24.966-55.652-55.652-55.652v111.304
	c-30.687,0-55.652-24.966-55.652-55.652h-33.391c0,49.178,39.866,89.043,89.043,89.043s89.043-39.866,89.043-89.043H431.861z"/>
<path style="fill:#263230;" d="M376.209,201.817c55.24,0,100.174,44.934,100.174,100.174s-44.934,100.174-100.174,100.174
	l-11.13-11.13l11.13-11.13c42.963,0,77.913-34.95,77.913-77.913s-34.95-77.913-77.913-77.913l-11.13-11.13L376.209,201.817z"/>
<path style="fill:#394B48;" d="M376.209,379.904v22.261c-55.24,0-100.174-44.934-100.174-100.174s44.934-100.174,100.174-100.174
	v22.261c-42.963,0-77.913,34.95-77.913,77.913S333.245,379.904,376.209,379.904z"/>
</svg>