<svg width="1458" height="1079" viewBox="0 0 1458 1079" fill="none" xmlns="http://www.w3.org/2000/svg">
<path d="M1457.73 184.791C1457.65 139.116 1457.98 93.4781 1457.57 47.8406C1457.38 40.6656 1448.17 36.1532 1442.03 39.5407C1360.84 79.7532 1279.62 120.016 1198.47 160.291C1192.34 134.028 1182.4 108.441 1166.74 86.3781C1133.2 37.2156 1076.9 4.39063 1017.5 0.028125C741.191 -0.009375 464.828 -0.009375 188.516 0.028125C93.9282 1.90312 8.55313 81.6657 0.353128 175.941C-0.196872 220.103 0.078125 264.253 0.115625 308.416C-0.846875 319.066 7.27812 328.041 16.1281 332.753C155.166 401.853 294.453 470.528 433.441 539.741C295.478 607.516 158.003 676.166 20.2156 744.266C10.5656 748.591 0.19062 756.878 0.22812 768.403C-0.0468796 812.641 -0.13437 856.878 0.31563 901.116C7.11563 989.066 81.0157 1066.02 168.428 1077.19C185.791 1078.79 203.253 1078.52 220.666 1078.55H993.328C1011.9 1078.27 1030.84 1078.9 1048.94 1073.98C1103.59 1060.94 1151.74 1023.58 1178.29 974.091C1188.4 956.791 1192.87 937.066 1199.5 918.491C1278.85 959.803 1359.84 998.191 1439.79 1038.38C1446.88 1043.78 1458.45 1038.49 1457.73 1029.25C1457.73 983.541 1457.82 937.816 1457.7 892.091C1457.5 882.803 1450.37 875.441 1442.17 872.116C1218.49 761.303 994.891 650.366 771.178 539.591C995.303 428.378 1219.53 317.403 1443.63 206.228C1452 202.666 1458.33 194.053 1457.72 184.766L1457.73 184.791ZM1051.83 846.153C1050.83 865.578 1055.55 886.828 1045.34 904.528C1036.78 920.103 1019.24 929.903 1001.55 929.666C734.516 929.741 467.453 929.666 200.428 929.703C181.603 930.378 162.753 919.891 154.341 902.916C145.503 886.103 149.503 866.403 148.778 848.228C299.591 773.016 450.728 698.466 601.678 623.553C752.016 696.778 901.778 772.053 1051.83 846.153ZM1051.74 233.028C902.016 307.166 752.278 381.303 602.603 455.653C451.103 381.191 300.016 305.841 148.728 230.903C149.503 212.928 145.653 193.641 153.941 176.891C162.228 159.553 181.203 148.641 200.303 149.353C467.241 149.391 734.228 149.316 1001.23 149.391C1025.64 148.703 1048.63 168.328 1051.35 192.666C1052.39 206.078 1051.88 219.566 1051.74 233.016V233.028Z" fill="white"/>
</svg>
