<svg width="701" height="688" viewBox="0 0 701 688" fill="none" xmlns="http://www.w3.org/2000/svg">
<path d="M661.055 216.86L418.195 22.6546C380.698 -7.49285 320.07 -7.49285 282.923 22.304L40.0629 216.86C12.7281 238.594 -4.7943 284.515 1.1633 318.869L47.7727 597.908C56.1835 647.687 103.844 688 154.309 688H546.809C596.923 688 644.935 647.336 653.345 597.908L699.955 318.869C705.562 284.515 688.04 238.594 661.055 216.86ZM375.441 526.399C368.432 533.407 359.671 536.912 350.559 536.912C341.448 536.912 332.686 533.407 325.677 526.746C312.01 513.075 312.01 490.99 325.677 477.318C339.345 463.647 361.773 463.647 375.441 477.318C389.108 490.639 389.108 512.724 375.441 526.399ZM443.778 445.769C438.521 451.027 431.863 453.831 424.854 453.831C418.195 453.831 411.887 451.378 406.631 446.47C372.637 413.869 328.481 413.869 294.137 446.47C283.624 456.636 267.153 456.285 256.99 445.769C246.827 435.252 247.177 418.776 257.69 408.61C312.01 356.378 388.057 356.378 442.727 408.61C453.591 418.426 453.941 435.252 443.778 445.769ZM518.073 371.452C512.816 376.71 506.158 379.514 499.149 379.514C492.49 379.514 485.832 377.061 480.925 372.153C464.454 356.028 445.881 343.057 426.256 333.592C377.193 310.105 323.575 310.105 274.862 333.592C255.237 343.057 237.014 356.028 220.193 372.153C210.03 382.319 193.208 382.319 183.045 371.802C172.882 361.286 173.233 344.81 183.396 334.644C204.072 314.312 227.202 298.186 252.083 286.268C315.515 255.771 385.604 255.771 448.684 286.268C473.566 298.186 496.696 314.312 517.372 334.644C527.885 344.459 528.236 361.286 518.073 371.452Z" fill="url(#paint0_linear_34_5)"/>
<defs>
<linearGradient id="paint0_linear_34_5" x1="350.5" y1="0" x2="350.5" y2="688" gradientUnits="userSpaceOnUse">
<stop stop-color="#5A708C"/>
<stop offset="1" stop-color="#EEF0FF"/>
</linearGradient>
</defs>
</svg>
