<svg width="700" height="700" viewBox="0 0 700 700" fill="none" xmlns="http://www.w3.org/2000/svg">
<path d="M295.764 551.667H403.573M313.733 619.048H385.604" stroke="#FF9900" stroke-width="50" stroke-linecap="round"/>
<path d="M225.971 394.817L255.728 422.823C264.076 430.683 268.81 441.639 268.81 453.102C268.81 470.324 282.771 484.286 299.993 484.286H399.34C416.562 484.286 430.524 470.324 430.524 453.102C430.524 441.639 435.257 430.683 443.607 422.823L473.362 394.817C514.901 355.418 538.096 303.662 538.331 249.852L538.333 247.592C538.333 155.653 453.865 80 349.667 80C245.469 80 161 155.653 161 247.592L161.002 249.852C161.236 303.662 184.432 355.418 225.971 394.817Z" stroke="white" stroke-width="50"/>
</svg>
