<svg width="500" height="501" viewBox="0 0 500 501" fill="none" xmlns="http://www.w3.org/2000/svg">
<path d="M450 0H50C36.7392 0 24.0215 5.26784 14.6447 14.6447C5.26784 24.0215 0 36.7392 0 50V350C0 363.261 5.26784 375.978 14.6447 385.355C24.0215 394.732 36.7392 400 50 400H139.75L232.25 492.75C234.574 495.093 237.339 496.953 240.386 498.222C243.432 499.492 246.7 500.145 250 500.145C253.3 500.145 256.568 499.492 259.614 498.222C262.661 496.953 265.426 495.093 267.75 492.75L360.25 400H450C463.261 400 475.978 394.732 485.355 385.355C494.732 375.978 500 363.261 500 350V50C500 36.7392 494.732 24.0215 485.355 14.6447C475.978 5.26784 463.261 0 450 0ZM350 175H323.25C319.113 208.61 306.841 240.704 287.5 268.5C293.365 271.625 299.573 274.058 306 275.75C311.911 277.231 317.077 280.82 320.528 285.843C323.979 290.865 325.476 296.975 324.739 303.023C324.002 309.072 321.082 314.644 316.526 318.691C311.97 322.738 306.094 324.981 300 325H294C278.405 320.482 263.575 313.657 250 304.75C236.493 313.767 221.519 320.366 205.75 324.25L200 325C193.37 325.796 186.695 323.925 181.444 319.799C176.193 315.673 172.796 309.63 172 303C171.204 296.37 173.075 289.695 177.201 284.444C181.327 279.193 187.37 275.796 194 275C198.345 273.885 202.605 272.465 206.75 270.75C195.934 260.936 186.438 249.759 178.5 237.5C175.951 231.86 175.585 225.475 177.472 219.581C179.359 213.687 183.365 208.702 188.716 205.591C194.066 202.481 200.38 201.465 206.436 202.741C212.492 204.018 217.86 207.495 221.5 212.5C228.417 222.934 236.842 232.285 246.5 240.25C260.134 220.824 269.037 198.479 272.5 175H150C143.37 175 137.011 172.366 132.322 167.678C127.634 162.989 125 156.63 125 150C125 143.37 127.634 137.011 132.322 132.322C137.011 127.634 143.37 125 150 125H225C225 118.37 227.634 112.011 232.322 107.322C237.011 102.634 243.37 100 250 100C256.63 100 262.989 102.634 267.678 107.322C272.366 112.011 275 118.37 275 125H350C356.63 125 362.989 127.634 367.678 132.322C372.366 137.011 375 143.37 375 150C375 156.63 372.366 162.989 367.678 167.678C362.989 172.366 356.63 175 350 175Z" fill="#B8FEBB"/>
</svg>
