<svg width="618" height="618" viewBox="0 0 618 618" fill="none" xmlns="http://www.w3.org/2000/svg">
<circle cx="309" cy="309" r="215" fill="white"/>
<path fill-rule="evenodd" clip-rule="evenodd" d="M234.605 37.0884C227.08 43.5011 223.318 46.7079 219.299 49.4011C210.088 55.575 199.743 59.8599 188.864 62.0077C184.118 62.9449 179.19 63.338 169.335 64.1244C144.572 66.1007 132.19 67.0886 121.861 70.7373C97.9688 79.1761 79.1761 97.9688 70.7373 121.861C67.0886 132.19 66.1007 144.572 64.1244 169.335C63.338 179.19 62.9449 184.118 62.0077 188.864C59.8599 199.743 55.575 210.088 49.4011 219.299C46.7079 223.318 43.5014 227.08 37.0884 234.605C20.9759 253.513 12.9194 262.965 8.19537 272.85C-2.73179 295.713 -2.73179 322.287 8.19537 345.15C12.9197 355.035 20.9759 364.487 37.0884 383.395C43.5005 390.919 46.7079 394.683 49.4011 398.7C55.575 407.911 59.8599 418.256 62.0077 429.136C62.9449 433.882 63.338 438.811 64.1244 448.665C66.1007 473.428 67.0886 485.81 70.7373 496.14C79.1761 520.031 97.9688 538.825 121.861 547.264C132.19 550.91 144.572 551.899 169.335 553.876C179.19 554.661 184.118 555.057 188.864 555.993C199.743 558.14 210.088 562.426 219.299 568.6C223.318 571.292 227.08 574.499 234.605 580.911C253.513 597.025 262.965 605.081 272.85 609.805C295.713 620.732 322.287 620.732 345.15 609.805C355.035 605.081 364.487 597.025 383.395 580.911C390.919 574.499 394.683 571.292 398.7 568.6C407.911 562.426 418.256 558.14 429.136 555.993C433.882 555.057 438.811 554.661 448.665 553.876C473.428 551.899 485.81 550.91 496.14 547.264C520.031 538.825 538.825 520.031 547.264 496.14C550.91 485.81 551.899 473.428 553.876 448.665C554.661 438.811 555.057 433.882 555.993 429.136C558.14 418.256 562.426 407.911 568.6 398.7C571.292 394.683 574.499 390.919 580.911 383.395C597.025 364.487 605.081 355.035 609.805 345.15C620.732 322.287 620.732 295.713 609.805 272.85C605.081 262.965 597.025 253.513 580.911 234.605C574.499 227.08 571.292 223.318 568.6 219.299C562.426 210.088 558.14 199.743 555.993 188.864C555.057 184.118 554.661 179.19 553.876 169.335C551.899 144.572 550.91 132.19 547.264 121.861C538.825 97.9688 520.031 79.1761 496.14 70.7373C485.81 67.0886 473.428 66.1007 448.665 64.1244C438.811 63.338 433.882 62.9449 429.136 62.0077C418.256 59.8599 407.911 55.575 398.7 49.4011C394.683 46.7079 390.919 43.5014 383.395 37.0884C364.487 20.9759 355.035 12.9197 345.15 8.19537C322.287 -2.73179 295.713 -2.73179 272.85 8.19537C262.965 12.9194 253.513 20.9759 234.605 37.0884ZM444.141 242.971C453.961 233.15 453.961 217.227 444.141 207.406C434.321 197.585 418.395 197.585 408.575 207.406L258.704 357.278L209.424 307.999C199.603 298.179 183.68 298.179 173.859 307.999C164.038 317.819 164.038 333.742 173.859 343.565L240.921 410.627C250.741 420.447 266.664 420.447 276.487 410.627L444.141 242.971Z" fill="url(#paint0_linear_27_262)"/>
<defs>
<linearGradient id="paint0_linear_27_262" x1="208" y1="-124.5" x2="825" y2="851.5" gradientUnits="userSpaceOnUse">
<stop stop-color="#8729FF"/>
<stop offset="0.925" stop-color="#410DFD"/>
<stop offset="1" stop-color="#4A1DFF"/>
<stop offset="1" stop-color="#3A09FD"/>
</linearGradient>
</defs>
</svg>
