<svg width="552" height="552" viewBox="0 0 552 552" fill="none" xmlns="http://www.w3.org/2000/svg">
<rect x="61" y="50" width="432" height="445" fill="white"/>
<path d="M435.342 0H116.658C52.4776 0 0 52.4892 0 116.561V435.316C0 499.511 52.4776 552 116.658 552H435.342C499.522 552 552 499.511 552 435.439V116.561C552 52.4892 499.522 0 435.342 0ZM373.749 389.85C339.38 449.239 263.004 469.816 203.505 435.686C175.295 484.725 135.875 446.282 151.397 419.422L170.737 385.907C178.005 373.216 194.389 368.78 207.077 376.173C229.99 389.48 206.954 376.035 229.867 389.357C263.866 408.948 307.967 397.12 327.677 363.113C347.264 329.105 335.438 284.995 301.438 265.28C279.511 252.713 300.699 264.788 278.525 252.22C248.221 234.723 274.337 188.272 305.134 206.014C328.046 219.322 305.01 205.876 327.923 219.198C387.546 253.698 408.118 330.461 373.749 389.85ZM400.603 132.578C379.662 168.927 380.524 168.064 377.198 171.391C369.191 179.4 357.118 182.111 344.553 175.825C321.641 162.518 344.677 175.963 321.764 162.641C287.764 143.05 243.663 154.879 223.954 188.886C204.244 222.893 216.193 267.004 250.192 286.718C250.192 286.718 272.982 299.779 273.105 299.779C303.409 317.275 277.293 363.727 246.497 345.984C223.584 332.677 246.62 346.122 223.707 332.8C164.331 298.547 143.759 221.784 178.005 162.272C212.374 102.883 288.75 82.306 348.249 116.436L354.162 106.086C371.778 75.406 418.219 102.021 400.603 132.578Z" fill="url(#paint0_linear_27_228)"/>
<defs>
<linearGradient id="paint0_linear_27_228" x1="276" y1="0" x2="276" y2="552" gradientUnits="userSpaceOnUse">
<stop stop-color="#FFD809"/>
<stop offset="1" stop-color="#FF8A00"/>
</linearGradient>
</defs>
</svg>
