<svg width="700" height="700" viewBox="0 0 700 700" fill="none" xmlns="http://www.w3.org/2000/svg">
<path fill-rule="evenodd" clip-rule="evenodd" d="M254.035 571.359C160.617 499.729 33 381.403 33 269.525C33 82.6244 207.63 12.845 350.5 157.224C493.369 12.845 668 82.6245 668 269.524C668 381.406 540.384 499.729 446.966 571.359C404.675 603.787 383.53 620 350.5 620C317.47 620 296.325 603.787 254.035 571.359ZM493.375 183.235C506.526 183.235 517.188 193.902 517.188 207.059V246.765H556.875C570.026 246.765 580.688 257.431 580.688 270.589C580.688 283.746 570.026 294.412 556.875 294.412H517.188V334.118C517.188 347.275 506.526 357.941 493.375 357.941C480.224 357.941 469.562 347.275 469.562 334.118V294.412H429.875C416.724 294.412 406.062 283.746 406.062 270.589C406.062 257.431 416.724 246.765 429.875 246.765H469.562V207.059C469.562 193.902 480.224 183.235 493.375 183.235Z" fill="#5F7756"/>
</svg>
