<svg width="628" height="628" viewBox="0 0 628 628" fill="none" xmlns="http://www.w3.org/2000/svg">
<g clip-path="url(#clip0_64_59)">
<path d="M335.907 328.838L584.186 229.527V394.644C569.433 385.198 551.89 379.721 533.07 379.721C480.642 379.721 438.14 422.223 438.14 474.651C438.14 527.079 480.642 569.581 533.07 569.581C585.498 569.581 628 527.079 628 474.651V195.593C628 162.212 628 134.216 625.652 111.91C625.319 108.758 624.928 105.623 624.495 102.699C622.232 87.4603 618.233 73.2444 610.516 61.3731C606.657 55.4375 601.867 50.0884 595.902 45.4903C594.784 44.6283 593.621 43.7926 592.421 42.9844L592.178 42.8232C571.521 29.0749 548.297 30.0581 524.375 36.1544C501.238 42.05 472.554 54.0562 437.381 68.7789L376.216 94.3797C359.728 101.279 345.76 107.125 334.797 113.18C323.131 119.622 313.083 127.221 305.547 138.543C298.014 149.866 294.883 162.068 293.446 175.315C292.093 187.766 292.093 202.909 292.093 220.781V453.063C277.337 443.616 259.797 438.14 240.977 438.14C188.548 438.14 146.047 480.642 146.047 533.07C146.047 585.498 188.548 628 240.977 628C293.405 628 335.907 585.498 335.907 533.07V328.838Z" fill="white"/>
<path opacity="0.5" d="M189.859 21.907C189.859 9.80819 180.051 0 167.953 0C155.854 0 146.046 9.80819 146.046 21.907V190.179C131.29 180.733 113.749 175.256 94.9293 175.256C42.5006 175.256 -0.000976562 217.757 -0.000976562 270.186C-0.000976562 322.614 42.5006 365.116 94.9293 365.116C147.358 365.116 189.859 322.614 189.859 270.186V109.666C210.263 124.406 234.537 131.442 255.58 131.442C267.679 131.442 277.487 121.634 277.487 109.535C277.487 97.4361 267.679 87.6279 255.58 87.6279C242.309 87.6279 225.387 82.4839 212.105 71.5152C199.452 61.0653 189.859 45.2116 189.859 21.907Z" fill="#D5D5D5"/>
</g>
<defs>
<clipPath id="clip0_64_59">
<rect width="628" height="628" fill="white"/>
</clipPath>
</defs>
</svg>
