<svg width="700" height="700" viewBox="0 0 700 700" fill="none" xmlns="http://www.w3.org/2000/svg">
<path d="M276.639 557.541L126.148 407.057C133.599 401.934 141.065 397.471 148.517 393.578C156.807 389.248 165.106 385.558 173.492 382.508L299.676 508.689C303.89 494.844 306.681 480.124 308.124 463.88L215.865 371.61C224.542 370.228 233.354 369.294 242.325 368.735C262.426 367.495 283.275 368.196 304.901 369.955C304.368 365.004 303.834 360.216 303.273 355.602C301.912 344.41 300.59 332.628 299.462 320.43C292.062 319.962 284.667 319.587 277.262 319.373C239.428 318.275 201.237 321.416 163.371 334.153C144.469 340.537 125.673 349.278 107.245 360.878C88.8458 372.456 70.7621 386.931 53.1162 404.577L28.0039 429.684L62.6165 464.307L87.7301 439.188C90.6885 436.23 93.6255 433.415 96.5738 430.722L253.299 587.448C262.27 577.679 269.995 567.768 276.639 557.541Z" fill="#99D0CD"/>
<path d="M368.298 275.845C367.328 241.599 370.255 209.68 380.578 178.982C385.758 163.602 392.786 148.496 402.327 133.34C411.861 118.193 423.907 103.028 439.206 87.7287L464.325 62.6202L429.709 27.9988L404.582 53.1174C381.05 76.6499 363.23 100.945 350.229 125.788C330.676 163.075 322.187 201.408 319.896 239.332C317.574 277.32 321.177 315.063 325.706 352.918C328.669 377.599 331.063 401.345 331.719 424.156C332.689 458.402 329.772 490.321 319.439 521.02C314.264 536.39 307.226 551.525 297.695 566.662C288.161 581.798 276.105 596.955 260.811 612.252L235.692 637.381L270.306 672.001L295.429 646.874C318.972 623.341 336.786 599.047 349.798 574.213C369.339 536.928 377.832 498.605 380.121 460.658C382.433 422.682 378.835 384.927 374.311 347.072C371.342 322.391 368.948 298.656 368.298 275.845Z" fill="#99D0CD"/>
<path d="M637.385 235.682L612.277 260.791C609.318 263.748 606.4 266.574 603.443 269.268L446.706 112.543C437.741 122.311 430.047 132.193 423.368 142.438L573.883 292.964C566.401 298.036 558.96 302.509 551.489 306.403C543.205 310.754 534.911 314.413 526.514 317.482L400.329 191.292C396.116 205.137 393.331 219.878 391.882 236.111L484.177 328.401C475.497 329.783 466.663 330.687 457.687 331.257C437.581 332.487 416.741 331.837 395.075 330.057C395.64 334.987 396.173 339.765 396.738 344.379C398.094 355.581 399.422 367.343 400.556 379.55C407.981 380.058 415.37 380.424 422.781 380.648C460.595 381.706 498.766 378.554 536.631 365.827C555.579 359.474 574.345 350.722 592.763 339.114C611.162 327.525 629.255 313.05 646.892 295.413L672 270.295L637.385 235.682Z" fill="#99D0CD"/>
</svg>
