<svg width="700" height="700" viewBox="0 0 700 700" fill="none" xmlns="http://www.w3.org/2000/svg">
<path d="M347.749 1.63818C170.17 1.63818 181.252 78.6458 181.252 78.6458L181.471 158.429H350.918V182.365H114.125C114.125 182.365 0.525879 169.468 0.525879 348.664C0.525879 527.817 99.6981 521.478 99.6981 521.478H158.891V438.328C158.891 438.328 155.7 339.156 256.489 339.156H424.538C424.538 339.156 518.967 340.686 518.967 247.896V94.4714C518.967 94.4714 533.306 1.63818 347.749 1.63818ZM254.303 55.279C271.156 55.279 284.796 68.9188 284.796 85.7717C284.796 102.625 271.156 116.264 254.303 116.264C250.298 116.27 246.33 115.485 242.628 113.955C238.925 112.425 235.562 110.179 232.729 107.346C229.896 104.513 227.651 101.15 226.12 97.4475C224.59 93.7454 223.805 89.7777 223.811 85.7717C223.811 68.9188 237.451 55.279 254.303 55.279Z" fill="url(#paint0_linear_77_6)"/>
<path d="M352.777 697.461C530.356 697.461 519.274 620.453 519.274 620.453L519.055 540.67H349.608V516.735H586.379C586.379 516.735 700 529.631 700 350.457C700 171.282 600.828 177.643 600.828 177.643H541.635V260.771C541.635 260.771 544.826 359.943 444.037 359.943H275.988C275.988 359.943 181.559 358.413 181.559 451.203V604.628C181.559 604.628 167.22 697.461 352.777 697.461ZM446.222 643.82C442.216 643.826 438.249 643.041 434.547 641.511C430.844 639.98 427.481 637.735 424.648 634.902C421.815 632.069 419.569 628.705 418.039 625.003C416.509 621.301 415.724 617.334 415.73 613.328C415.73 596.496 429.369 582.857 446.222 582.857C463.075 582.857 476.715 596.475 476.715 613.328C476.715 630.202 463.075 643.82 446.222 643.82Z" fill="url(#paint1_linear_77_6)"/>
<defs>
<linearGradient id="paint0_linear_77_6" x1="67.7409" y1="62.4486" x2="413.608" y2="409.475" gradientUnits="userSpaceOnUse">
<stop stop-color="#387EB8"/>
<stop offset="1" stop-color="#366994"/>
</linearGradient>
<linearGradient id="paint1_linear_77_6" x1="280.513" y1="283.22" x2="651.977" y2="639.099" gradientUnits="userSpaceOnUse">
<stop stop-color="#FFE052"/>
<stop offset="1" stop-color="#FFC331"/>
</linearGradient>
</defs>
</svg>
