<svg width="247" height="247" viewBox="0 0 247 247" fill="none" xmlns="http://www.w3.org/2000/svg">
<path d="M99.3888 111.444C79.1691 111.444 62.8471 70.7614 62.8471 50.5417C62.8471 40.8502 66.697 31.5557 73.5499 24.7028C80.4028 17.8499 89.6973 14 99.3888 14C109.08 14 118.375 17.8499 125.228 24.7028C132.081 31.5557 135.93 40.8502 135.93 50.5417C135.93 70.7614 119.608 111.444 99.3888 111.444ZM99.3888 135.806C79.1691 135.806 62.8471 176.489 62.8471 196.708C62.8471 206.4 66.697 215.694 73.5499 222.547C80.4028 229.4 89.6973 233.25 99.3888 233.25C109.08 233.25 118.375 229.4 125.228 222.547C132.081 215.694 135.93 206.4 135.93 196.708C135.93 176.489 119.608 135.806 99.3888 135.806Z" stroke="#B7B7B7" stroke-width="20.5833" stroke-linecap="round" stroke-linejoin="round"/>
<path d="M62.8471 99.2634H135.93" stroke="white" stroke-width="20.5833" stroke-linecap="round" stroke-linejoin="round"/>
<path d="M50.6667 123.625H148.111" stroke="white" stroke-width="20.5833" stroke-linecap="round" stroke-linejoin="round"/>
<path d="M196.833 172.348C181.222 156.758 160.064 147.997 138.001 147.987H62.8471" stroke="white" stroke-width="20.5833" stroke-linecap="round" stroke-linejoin="round"/>
</svg>
