<svg width="700" height="700" viewBox="0 0 700 700" fill="none" xmlns="http://www.w3.org/2000/svg">
<path d="M647 130V97H53V592H647V559H152V476.5H647V443.5H152V361H647V328H152V245.5H647V212.5H152V130H647Z" fill="#434343"/>
<path d="M512.506 387.372C509.009 377.056 503.723 367.436 496.889 358.954C490.048 350.442 481.447 343.51 471.675 338.635C461.555 333.513 450.349 330.91 439.008 331.048C437.59 331.048 435.578 331.196 432.972 331.476L424.183 288.709C434.514 278.495 443.472 266.979 450.832 254.453C459.06 240.483 465.426 225.259 469.713 209.244C474.149 193.114 476.293 177.214 476.293 160.671C476.293 125.937 467.355 95.6877 449.463 70.3705C447.516 67.8448 445.383 65.4686 443.081 63.2618C436.584 57.4067 430.087 56.4666 414.981 67.6491C407.231 73.4547 400.42 81.8333 394.797 92.488C388.993 103.11 384.771 115.018 381.836 128.773C378.68 143.319 377.066 158.157 377.021 173.041C377.699 195.39 380.885 217.592 386.519 239.229C373.822 252.078 363.564 262.815 355.501 271.408C346.338 281.514 337.86 292.22 330.122 303.454C321.852 315.381 315.027 328.248 309.789 341.785C304.405 355.779 301.433 370.586 301 385.575C301.132 401.771 304.216 417.638 310.251 432.812C316.267 447.696 324.902 461.382 335.745 473.22C346.576 484.951 359.602 494.444 374.085 501.16C394.823 510.607 417.938 513.541 440.377 509.572C441.416 514.322 442.784 519.946 444.4 526.428C446.989 537.099 448.919 545.758 450.172 552.157C451.376 558.606 451.969 564.791 451.969 570.663C451.969 579.586 450.996 586.414 448.721 592.121C447.896 595.452 445.67 598.916 442.108 602.347C438.13 606.172 433.425 609.161 428.273 611.138C421.551 613.905 414.24 614.932 407.017 614.123C410.232 612.391 413.201 610.148 415.872 607.443C423.012 600.136 426.624 591.148 426.624 580.691C426.623 573.3 424.763 566.029 421.215 559.546C417.656 553.332 412.642 548.074 406.604 544.224C400.516 540.514 393.517 538.567 386.387 538.6H386.288C377.845 539.161 370.556 541.816 364.834 546.368C358.898 550.755 354.181 556.578 350.784 563.703C347.474 570.754 345.581 578.386 345.211 586.167C345.87 603.32 353.077 617.257 366.747 627.532C379.676 637.115 394.896 641.997 411.914 641.997C423.684 642.112 435.305 639.355 445.769 633.964C456.12 628.694 464.838 620.699 470.983 610.841C477.084 600.912 480.201 589.548 480.201 577.095C480.201 568.931 479.492 561.262 478.074 553.691C476.124 543.383 474.013 533.107 471.741 522.865C470.013 515.475 468.429 508.052 466.992 500.599C482.905 493.54 495.224 483.298 503.7 470.086C513.174 455.334 518.142 438.139 517.997 420.606C517.934 409.308 516.08 398.091 512.506 387.372ZM461.023 472.775L443.757 387.851C448.061 388.774 452.035 390.275 455.746 392.403C462.276 396.097 467.338 401.128 471.329 407.874C475.303 414.306 477.793 421.695 478.849 429.364C478.849 449.915 473.011 464.248 461.023 472.775ZM441.927 165.356C438.764 174.431 434.658 183.148 429.674 191.366C425.049 199.273 419.759 206.771 413.86 213.78C412.33 215.597 410.746 217.368 409.111 219.091C407.763 212.765 406.941 206.338 406.654 199.876C406.965 188.276 408.654 176.755 411.683 165.554C414.487 154.651 418.412 144.788 423.144 136.591C428.174 128.872 433.385 124.963 438.711 124.963C440.608 124.963 441.943 125.425 442.982 126.398C444.136 127.569 444.945 129.829 445.456 133.886C445.95 136.08 446.231 138.884 446.231 142.034C446.231 149.341 444.78 157.175 441.927 165.356ZM360.382 354.683C371.15 339.129 384.326 324.384 400.47 309.854L406.06 338.536C394.237 344.506 384.276 353.38 376.361 365.09C367.33 378.319 362.334 393.887 361.981 409.902C362.262 424.961 367.077 438.535 376.345 450.327C385.345 461.814 397.94 469.945 412.112 473.418L414.091 473.913L416.103 473.435C424.958 471.34 425.898 465.666 425.898 463.324C425.898 457.634 422.204 453.082 416.35 451.449C410.568 448.917 405.806 444.514 402.828 438.947C399.497 432.878 397.733 427.187 397.733 422.553C397.733 414.702 400.536 407.659 406.242 401.062C409.771 397.07 413.365 393.937 417.026 391.628L435.05 482.473C429.368 483.72 423.604 484.558 417.801 484.98C394.979 484.238 376.279 476.733 362.245 462.714C355.482 456.011 350.113 448.034 346.447 439.244C343.007 430.947 341.097 422.096 340.808 413.118C341.286 392.172 347.882 372.495 360.382 354.683Z" fill="white"/>
</svg>
