<svg width="560" height="623" viewBox="0 0 560 623" fill="none" xmlns="http://www.w3.org/2000/svg">
<path d="M279.776 0C205.72 0 148.307 109.589 138.022 261.816C151.299 275.936 166.915 289.962 184.213 303.614C184.4 287.718 185.335 272.57 186.645 257.702C200.577 248.071 218.063 236.289 231.901 228.248C295.579 191.5 361.126 167.282 416.388 160.082C427.235 158.679 437.427 158.025 446.684 158.025C477.728 158.025 499.702 165.505 507.837 179.531C515.131 192.248 511.858 212.445 499.609 236.102C512.138 247.697 524.014 259.479 534.58 271.354C561.509 226.752 567.026 186.264 549.26 155.594C528.128 119.033 478.85 103.698 410.311 112.581C348.877 120.529 277.065 146.898 207.964 186.825C203.569 189.349 199.455 192.155 195.154 194.866C212.359 106.316 247.33 47.875 279.776 47.875C294.924 47.875 310.633 60.7788 324.846 83.2202C341.116 78.1709 357.199 73.7761 372.815 70.5034C348.036 26.0881 315.87 0 279.776 0ZM117.45 110.43C65.5545 109.495 27.9651 125.017 10.2925 155.594C-8.96969 188.882 -0.928179 233.578 32.1729 282.668C35.1651 287.25 38.4378 292.112 42.552 297.442C80.1414 346.626 138.863 395.623 207.964 435.55C212.359 438.075 216.94 440.319 221.429 442.844C194.032 452.288 167.476 459.114 143.071 462.293C96.4114 468.371 62.2818 461.077 51.8091 442.844C44.4222 430.127 47.6949 409.93 59.9441 386.273C47.4143 374.678 35.5391 362.896 24.8794 351.115C-1.95675 395.623 -7.4736 436.111 10.2925 466.781C27.4976 496.61 63.4039 512.319 113.149 512.319C124.463 512.319 136.619 511.477 149.242 509.794C156.536 508.859 163.829 507.643 171.31 506.147L176.546 505.025C176.92 505.025 177.2 504.932 177.574 504.838C190.291 502.126 204.317 498.386 220.4 493.337L236.203 488.475C259.673 480.433 283.704 470.428 307.735 458.74C312.971 441.348 317.646 421.057 321.199 397.68C307.361 405.441 293.428 412.454 279.589 419C263.6 411.519 247.517 403.197 231.901 394.127C168.13 357.286 114.365 312.684 80.6089 268.455C51.9961 230.959 41.2429 197.765 51.8091 179.531C59.0091 167.001 78.0843 159.895 104.359 158.586C108.1 141.661 112.401 125.578 117.45 110.43ZM393.292 213.006C374.404 217.401 354.394 223.853 333.916 231.988C347.475 240.03 360.378 248.632 372.908 257.235C374.404 274.627 375.526 292.393 375.526 311.188C375.526 452.381 331.111 560.1 288.379 573.097C285.48 574.032 282.488 574.5 279.776 574.5C264.628 574.5 248.919 561.69 234.707 539.061C218.437 544.204 202.354 548.599 186.738 551.872C211.517 596.287 243.683 622.375 279.776 622.375C284.545 622.375 289.127 621.907 293.615 620.972C368.513 606.76 423.401 478.469 423.401 311.188C423.401 306.045 423.027 301.089 422.934 295.946C444.814 314.928 464.076 334.47 479.037 353.92C507.557 391.416 518.31 424.61 507.837 442.844C500.45 455.467 481.655 462.76 455.193 464.07C451.453 480.807 447.245 496.984 442.196 512.038C443.505 512.038 445.095 512.319 446.404 512.319C496.149 512.319 532.055 496.61 549.26 466.781C570.393 430.22 558.985 379.821 517.001 324.933C487.266 286.034 444.16 247.323 393.292 213.006ZM279.776 263.312C253.314 263.312 231.901 284.725 231.901 311.188C231.901 337.65 253.314 359.062 279.776 359.062C306.239 359.062 327.651 337.65 327.651 311.188C327.651 284.725 306.239 263.312 279.776 263.312Z" fill="white"/>
</svg>
