<svg width="26" height="26" viewBox="0 0 26 26" fill="none" xmlns="http://www.w3.org/2000/svg">
<path d="M8.67329 26C11.0648 26 13.0058 24.0587 13.0058 21.6667V17.3333H8.67329C6.28177 17.3333 4.34082 19.2747 4.34082 21.6667C4.34082 24.0587 6.28177 26 8.67329 26Z" fill="#0ACF83"/>
<path d="M4.34082 13C4.34082 10.608 6.28177 8.66667 8.67329 8.66667H13.0058V17.3333H8.67329C6.28177 17.3333 4.34082 15.392 4.34082 13Z" fill="#A259FF"/>
<path d="M4.34082 4.33333C4.34082 1.94133 6.28177 0 8.67329 0H13.0058V8.66667H8.67329C6.28177 8.66667 4.34082 6.72533 4.34082 4.33333Z" fill="#F24E1E"/>
<path d="M13.0057 0H17.3382C19.7297 0 21.6707 1.94133 21.6707 4.33333C21.6707 6.72533 19.7297 8.66667 17.3382 8.66667H13.0057V0Z" fill="#FF7262"/>
<path d="M21.6707 13C21.6707 15.392 19.7297 17.3333 17.3382 17.3333C14.9467 17.3333 13.0057 15.392 13.0057 13C13.0057 10.608 14.9467 8.66667 17.3382 8.66667C19.7297 8.66667 21.6707 10.608 21.6707 13Z" fill="#1ABCFE"/>
</svg>
