<svg width="548" height="548" viewBox="0 0 548 548" fill="none" xmlns="http://www.w3.org/2000/svg">
<path d="M389 0H159.273C59.4876 0 0 59.458 0 159.194V388.532C0 488.542 59.4876 548 159.273 548H388.726C488.511 548 547.999 488.542 547.999 388.806V159.194C548.273 59.458 488.786 0 389 0ZM434.507 331.54C433.41 334.006 432.039 336.198 430.12 338.116L346.783 421.412C342.671 425.522 337.462 427.44 332.254 427.44C327.045 427.44 321.836 425.522 317.724 421.412C309.774 413.466 309.774 400.314 317.724 392.368L365.972 344.144H132.956C121.717 344.144 112.396 334.828 112.396 323.594C112.396 312.36 121.717 303.044 132.956 303.044H415.591C418.332 303.044 420.8 303.592 423.541 304.688C428.476 306.88 432.588 310.716 434.781 315.922C436.425 320.854 436.425 326.608 434.507 331.54ZM415.317 244.682H132.956C130.215 244.682 127.748 244.134 125.006 243.038C120.072 240.846 115.96 237.01 113.767 231.804C111.574 226.872 111.574 221.118 113.767 216.186C114.863 213.72 116.234 211.528 118.153 209.61L201.49 126.314C209.44 118.368 222.599 118.368 230.549 126.314C238.499 134.26 238.499 147.412 230.549 155.358L182.575 203.582H415.591C426.831 203.582 436.151 212.898 436.151 224.132C436.151 235.366 426.831 244.682 415.317 244.682Z" fill="white"/>
</svg>
